<?xml version="1.0" encoding="iso-8859-1"?>
<!-- Generator: Adobe Illustrator 16.0.0, SVG Export Plug-In . SVG Version: 6.00 Build 0)  -->
<!DOCTYPE svg PUBLIC "-//W3C//DTD SVG 1.1//EN" "http://www.w3.org/Graphics/SVG/1.1/DTD/svg11.dtd">
<svg xmlns="http://www.w3.org/2000/svg" xmlns:xlink="http://www.w3.org/1999/xlink" version="1.1" id="Capa_1" x="0px" y="0px" width="512px" height="512px" viewBox="0 0 307.627 307.627" style="enable-background:new 0 0 307.627 307.627;" xml:space="preserve">
<g>
	<g>
		<path d="M76.508,143.574c1.077,6.377,6.602,11.047,13.072,11.047h9.608l11.602,51.699h83.516l13.184-51.699h8.688    c6.297,0,11.724-4.427,12.981-10.591l17.218-84.054c2.941-14.343-0.492-27.165-7.664-28.632    c-7.177-1.471-12.986-2.664-12.986-2.664l-20.365,99.433H100.788L84.096,29.138l-13.07,2.206    c-7.218,1.217-11.099,13.906-8.666,28.35L76.508,143.574z" fill="#3680b5"/>
		<path d="M300.296,218.25H7.338l-7.104,53.263c-1.937,14.509,8.368,26.273,23.006,26.273h261.143    c14.645,0,24.943-11.765,23.012-26.273L300.296,218.25z M84.552,285.193c-29.285,0-53.024-12.624-53.024-28.18    c0-15.57,23.739-28.189,53.024-28.189c29.285,0,53.024,12.624,53.024,28.189C137.576,272.569,113.837,285.193,84.552,285.193z     M223.079,285.193c-29.287,0-53.023-12.624-53.023-28.18c0-15.57,23.736-28.189,53.023-28.189    c29.282,0,53.024,12.624,53.024,28.189C276.104,272.569,252.361,285.193,223.079,285.193z" fill="#3680b5"/>
		<path d="M156.305,62.213h33.754C183.975,48.269,170.112,38.5,153.918,38.5c-16.187,0-30.049,9.769-36.141,23.713h33.554H156.305z" fill="#3680b5"/>
		<path d="M106.261,78.788c0.021,0,0.036,4.145,0.042,8.293c0.005,4.588,2.716,8.298,6.056,8.298h6.056    c6.4,13.013,19.879,22.121,35.509,22.121c15.573,0,29-9.028,35.432-22.121c0,0,2.683,0,5.991,0s5.985-3.71,5.985-8.298v-8.293    c0.052,0,0.052-33.119,0.052-33.119c0-19.757-18.967-35.828-42.284-35.828h-10.55c-23.322,0-42.287,16.07-42.287,35.828V78.788z     M111.695,45.664c0-12.604,9.336-23.441,22.61-28.044c4.453,1.654,10.494,4.603,17.3,4.74c6.957,0.132,15.254-3.265,19.993-5.266    c14.167,4.238,24.343,15.426,24.343,28.57v25.562h-3.144c-0.337-1.939-0.85-3.821-1.455-5.652l-26.916,16.159    c-2.749,1.641-5.858,0.539-6.951-2.483l-2.183-6.046c-0.818-2.263-2.144-2.263-2.959,0l-2.185,6.046    c-1.088,3.016-4.2,4.119-6.952,2.483L116.452,65.68c-0.593,1.805-1.087,3.648-1.421,5.554h-3.34v-25.57H111.695z" fill="#3680b5"/>
		<path d="M83.863,252.333c8.419,0,15.244,2.377,15.244,5.302c0,2.932-6.825,5.303-15.244,5.303c-8.42,0-15.245-2.371-15.245-5.303    C68.619,254.71,75.443,252.333,83.863,252.333z" fill="#3680b5"/>
		<ellipse cx="223.494" cy="258.018" rx="15.244" ry="5.302" fill="#3680b5"/>
	</g>
</g>
<g>
</g>
<g>
</g>
<g>
</g>
<g>
</g>
<g>
</g>
<g>
</g>
<g>
</g>
<g>
</g>
<g>
</g>
<g>
</g>
<g>
</g>
<g>
</g>
<g>
</g>
<g>
</g>
<g>
</g>
</svg>
